<?xml version="1.0" standalone="no"?>
<!DOCTYPE svg PUBLIC "-//W3C//DTD SVG 20010904//EN"
 "http://www.w3.org/TR/2001/REC-SVG-20010904/DTD/svg10.dtd">
<svg version="1.0" xmlns="http://www.w3.org/2000/svg"
 width="2133.000000pt" height="1600.000000pt" viewBox="0 0 2133.000000 1600.000000"
 preserveAspectRatio="xMidYMid meet">

<g transform="translate(0.000000,1600.000000) scale(0.100000,-0.100000)"
fill="#000000" stroke="none">
<path d="M8255 12403 c-765 -64 -1445 -373 -1966 -893 -237 -236 -373 -414
-529 -693 -229 -411 -359 -856 -401 -1374 -15 -182 -7 -552 15 -723 121 -930
574 -1570 1275 -1800 198 -65 264 -73 576 -67 231 4 281 8 347 26 307 82 547
210 751 402 358 336 574 804 663 1440 23 158 26 663 6 844 -13 117 -47 331
-59 369 -5 18 -14 18 -157 13 -163 -7 -251 -22 -388 -68 -89 -29 -257 -108
-295 -138 l-21 -16 19 -105 c38 -204 40 -631 5 -870 -37 -247 -123 -481 -243
-662 -57 -86 -198 -218 -291 -273 -112 -66 -208 -88 -377 -89 -169 0 -228 13
-373 85 -87 42 -117 64 -185 132 -200 199 -313 467 -373 882 -22 151 -25 535
-6 675 50 356 157 664 331 959 87 147 161 240 316 399 230 237 439 378 733
496 521 209 1104 230 1652 57 159 -50 207 -69 340 -136 241 -120 411 -244 605
-439 244 -245 424 -523 550 -851 87 -224 126 -413 150 -722 21 -270 41 -319
178 -428 74 -59 398 -284 664 -460 l103 -68 -33 -39 c-160 -194 -171 -383 -28
-527 60 -61 119 -94 189 -106 23 -4 42 -9 42 -12 0 -17 -107 -151 -185 -232
-143 -148 -295 -251 -465 -315 -44 -16 -47 -16 -135 9 -232 67 -448 223 -570
413 -22 34 -42 62 -45 62 -3 0 -20 -30 -38 -66 l-33 -66 32 -56 c81 -144 212
-270 369 -353 l45 -24 -60 -5 c-106 -9 -314 9 -560 47 -214 34 -260 38 -425
38 -135 0 -213 -5 -290 -19 -585 -103 -1015 -469 -1194 -1017 -84 -257 -98
-571 -40 -859 55 -268 220 -594 440 -870 150 -187 467 -486 699 -659 289 -215
724 -476 910 -546 62 -24 81 -26 176 -23 103 3 108 4 200 50 102 51 216 118
519 305 912 562 1699 1145 2355 1742 1232 1125 1988 2299 2189 3401 43 237 51
340 50 630 0 300 -12 421 -64 680 -99 493 -325 979 -632 1361 -514 639 -1247
1040 -2073 1135 -190 22 -666 26 -800 6 -672 -99 -1206 -318 -1653 -676 -45
-36 -87 -66 -92 -66 -6 0 -45 28 -88 61 -266 212 -624 407 -966 526 -214 74
-526 138 -796 163 -105 9 -468 11 -565 3z m4955 -908 c492 -81 871 -275 1226
-629 302 -303 490 -639 598 -1071 153 -614 69 -1218 -269 -1920 -263 -547
-628 -1046 -1186 -1619 -700 -720 -1474 -1327 -2544 -1996 -250 -156 -365
-220 -400 -220 -70 0 -479 276 -740 500 -122 105 -276 266 -358 375 -83 111
-190 323 -217 430 -23 88 -28 253 -11 340 55 287 254 468 558 507 94 12 203 4
423 -33 449 -75 731 -77 1075 -8 430 86 792 282 1105 598 328 331 569 770 702
1276 25 95 32 141 32 220 1 96 -1 103 -36 176 -52 106 -106 150 -560 455 -557
374 -750 508 -778 541 -19 21 -30 45 -30 63 0 99 -83 486 -145 679 -66 205
-201 497 -329 710 -31 52 -56 100 -56 107 0 13 133 114 252 192 196 127 469
241 712 297 305 70 665 81 976 30z m-1080 -3370 c36 -25 70 -55 77 -68 15 -27
16 -74 3 -114 -13 -35 -58 -53 -135 -53 -40 0 -52 5 -80 33 -41 41 -51 77 -37
126 11 33 83 121 100 121 5 0 37 -20 72 -45z"/>
<path d="M9840 9546 c-154 -43 -278 -162 -315 -301 -77 -297 123 -565 423
-565 43 0 100 7 127 15 101 31 215 126 270 226 29 53 30 58 30 189 0 133 -1
137 -33 203 -18 37 -54 89 -80 115 -101 104 -286 155 -422 118z m340 -273 c41
-46 40 -85 -4 -129 -26 -26 -42 -34 -71 -34 -29 0 -45 8 -71 34 -44 44 -45 82
-4 130 48 54 102 54 150 -1z"/>
</g>
</svg>
