<svg width="40" height="40" viewBox="0 0 40 40" fill="none" xmlns="http://www.w3.org/2000/svg">
<g clip-path="url(#clip0_272_2589)">
<path d="M31.9 21.5667C31.9667 21.0667 32 20.55 32 20C32 19.4667 31.9667 18.9333 31.8833 18.4333L35.2667 15.8C35.5667 15.5667 35.65 15.1167 35.4667 14.7833L32.2667 9.25C32.0667 8.88333 31.65 8.76667 31.2833 8.88333L27.3 10.4833C26.4667 9.85 25.5833 9.31667 24.6 8.91667L24 4.68333C23.9333 4.28333 23.6 4 23.2 4H16.8C16.4 4 16.0833 4.28333 16.0167 4.68333L15.4167 8.91667C14.4333 9.31667 13.5333 9.86667 12.7167 10.4833L8.73333 8.88333C8.36666 8.75 7.94999 8.88333 7.74999 9.25L4.56666 14.7833C4.36666 15.1333 4.43333 15.5667 4.76666 15.8L8.14999 18.4333C8.06666 18.9333 7.99999 19.4833 7.99999 20C7.99999 20.5167 8.03333 21.0667 8.11666 21.5667L4.73333 24.2C4.43333 24.4333 4.34999 24.8833 4.53333 25.2167L7.73333 30.75C7.93333 31.1167 8.34999 31.2333 8.71666 31.1167L12.7 29.5167C13.5333 30.15 14.4167 30.6833 15.4 31.0833L16 35.3167C16.0833 35.7167 16.4 36 16.8 36H23.2C23.6 36 23.9333 35.7167 23.9833 35.3167L24.5833 31.0833C25.5667 30.6833 26.4667 30.15 27.2833 29.5167L31.2667 31.1167C31.6333 31.25 32.05 31.1167 32.25 30.75L35.45 25.2167C35.65 24.85 35.5667 24.4333 35.25 24.2L31.9 21.5667ZM20 26C16.7 26 14 23.3 14 20C14 16.7 16.7 14 20 14C23.3 14 26 16.7 26 20C26 23.3 23.3 26 20 26Z" fill="black"/>
</g>
<defs>
<clipPath id="clip0_272_2589">
<rect width="40" height="40" fill="white"/>
</clipPath>
</defs>
</svg>
